<?xml version="1.0" encoding="UTF-8" standalone="no"?>
<!-- Created with Inkscape (http://www.inkscape.org/) -->

<svg
   xmlns:dc="http://purl.org/dc/elements/1.1/"
   xmlns:cc="http://creativecommons.org/ns#"
   xmlns:rdf="http://www.w3.org/1999/02/22-rdf-syntax-ns#"
   xmlns:svg="http://www.w3.org/2000/svg"
   xmlns="http://www.w3.org/2000/svg"
   xmlns:sodipodi="http://sodipodi.sourceforge.net/DTD/sodipodi-0.dtd"
   xmlns:inkscape="http://www.inkscape.org/namespaces/inkscape"
   width="300"
   height="299.9556"
   id="svg2"
   version="1.1"
   inkscape:version="0.48.4 r9939"
   sodipodi:docname="New document 1">
  <defs
     id="defs4" />
  <sodipodi:namedview
     id="base"
     pagecolor="#ffffff"
     bordercolor="#666666"
     borderopacity="1.0"
     inkscape:pageopacity="0.0"
     inkscape:pageshadow="2"
     inkscape:zoom="0.49497475"
     inkscape:cx="161.69577"
     inkscape:cy="146.23699"
     inkscape:document-units="px"
     inkscape:current-layer="layer1"
     showgrid="false"
     fit-margin-top="0"
     fit-margin-left="0"
     fit-margin-right="0"
     fit-margin-bottom="0"
     inkscape:window-width="466"
     inkscape:window-height="421"
     inkscape:window-x="566"
     inkscape:window-y="214"
     inkscape:window-maximized="0" />
  <metadata
     id="metadata7">
    <rdf:RDF>
      <cc:Work
         rdf:about="">
        <dc:format>image/svg+xml</dc:format>
        <dc:type
           rdf:resource="http://purl.org/dc/dcmitype/StillImage" />
        <dc:title></dc:title>
      </cc:Work>
    </rdf:RDF>
  </metadata>
  <g
     inkscape:label="Layer 1"
     inkscape:groupmode="layer"
     id="layer1"
     transform="translate(-206.40032,-389.37888)">
    <path
       style="fill:#000000"
       d="m 254.61585,687.36023 c -22.73634,-5.9569 -40.40357,-23.75682 -46.24353,-46.59083 -1.89376,-7.40454 -1.972,-11.42714 -1.972,-101.39052 0,-89.96338 0.0782,-93.98598 1.972,-101.39052 5.89013,-23.03019 23.60729,-40.74735 46.63748,-46.63748 7.40454,-1.89376 11.42714,-1.972 101.39052,-1.972 89.96338,0 93.98598,0.0782 101.39052,1.972 23.03019,5.89013 40.74735,23.60729 46.63748,46.63748 1.89376,7.40454 1.972,11.42714 1.972,101.39052 0,89.96338 -0.0782,93.98598 -1.972,101.39052 -5.89013,23.03019 -23.60729,40.74735 -46.63748,46.63748 -7.4138,1.89613 -11.33042,1.96988 -101.80048,1.91694 -89.27557,-0.0522 -94.46278,-0.15272 -101.37451,-1.96359 z m 197.28447,-4.4807 c 23.58336,-4.9344 43.06625,-24.41729 48.00065,-48.00065 2.17621,-10.40095 2.17621,-180.59906 0,-191 -4.9344,-23.58336 -24.41729,-43.06625 -48.00065,-48.00065 -10.40095,-2.17621 -180.59906,-2.17621 -191,0 -23.58336,4.9344 -43.06625,24.41729 -48.00065,48.00065 -2.17621,10.40094 -2.17621,180.59905 0,191 4.88413,23.34311 24.32701,42.96785 47.50065,47.94497 9.87242,2.12034 181.39383,2.17021 191.5,0.0557 z m -163.5,-25.99533 c -11.34499,-2.55955 -20.40845,-7.80972 -30.06703,-17.41683 -9.38622,-9.33622 -14.25092,-17.03308 -18.06897,-28.58849 -2.28989,-6.9304 -2.31616,-7.5637 -2.64139,-63.69651 -0.23468,-40.50376 -3.3e-4,-57.91525 0.82054,-60.96375 1.51837,-5.63878 7.22589,-11.29655 12.95109,-12.83819 9.02607,-2.43047 19.23782,1.71492 22.90971,9.30004 2.0459,4.22625 2.09605,5.57733 2.09605,56.46491 0,33.00329 0.38963,53.95184 1.06176,57.08589 3.19362,14.89131 17.28756,24.40181 31.46129,21.22987 18.28919,-4.09295 27.42358,-27.81219 16.51162,-42.8757 -3.93006,-5.4253 -10.2903,-8.27833 -20.8382,-9.34746 -14.21783,-1.44112 -20.19647,-7.31988 -20.19647,-19.8591 0,-12.61687 7.52617,-20.04894 20.21788,-19.96511 23.13709,0.15282 44.44438,11.72997 55.54378,30.17929 12.0762,20.07293 11.70638,49.49471 -0.88448,70.36753 -7.96012,13.19609 -21.44104,24.37002 -35.20103,29.17705 -9.08072,3.17234 -25.74128,3.98797 -35.67615,1.74656 z m 158,-87.87433 c 0,-13.61913 -5.85311,-36.39489 -13.05565,-50.80248 -5.781,-11.56399 -14.27129,-23.22013 -23.9122,-32.82851 -19.04039,-18.97617 -40.73063,-30.4512 -66.96654,-35.42807 -4.5576,-0.86456 -9.98059,-1.57193 -12.05108,-1.57193 -2.07049,0 -5.17078,-0.28125 -6.88953,-0.625 l -3.125,-0.625 0,-14.99328 0,-14.99327 8.75,0.67227 c 30.45092,2.33961 58.10301,12.08376 81.97273,28.88588 12.91375,9.09011 29.41549,25.99739 38.13167,39.06879 17.61429,26.41563 25.33907,49.51457 27.5428,82.35961 l 0.48644,7.25 -15.44182,0 -15.44182,0 0,-6.36901 z m -53.35238,-1.51265 c -3.18072,-34.22331 -31.54265,-62.58524 -65.76596,-65.76596 l -6.88166,-0.63958 0,-15.00722 0,-15.00723 9.25,0.64575 c 32.39135,2.26126 61.99525,21.03995 79.93126,50.70293 7.57226,12.52317 13.77609,33.28542 13.8056,46.20297 l 0.0131,5.75 -14.8564,0 -14.8564,0 -0.63958,-6.88166 z"
       id="path2996"
       inkscape:connector-curvature="0" />
  </g>
</svg>
