<?xml version="1.0" encoding="UTF-8" standalone="no"?>
<!-- Created with Inkscape (http://www.inkscape.org/) -->

<svg
   xmlns:dc="http://purl.org/dc/elements/1.1/"
   xmlns:cc="http://creativecommons.org/ns#"
   xmlns:rdf="http://www.w3.org/1999/02/22-rdf-syntax-ns#"
   xmlns:svg="http://www.w3.org/2000/svg"
   xmlns="http://www.w3.org/2000/svg"
   xmlns:sodipodi="http://sodipodi.sourceforge.net/DTD/sodipodi-0.dtd"
   xmlns:inkscape="http://www.inkscape.org/namespaces/inkscape"
   width="411"
   height="362.18784"
   id="svg2"
   version="1.1"
   inkscape:version="0.48.4 r9939"
   sodipodi:docname="New document 1">
  <defs
     id="defs4" />
  <sodipodi:namedview
     id="base"
     pagecolor="#ffffff"
     bordercolor="#666666"
     borderopacity="1.0"
     inkscape:pageopacity="0.0"
     inkscape:pageshadow="2"
     inkscape:zoom="1.4"
     inkscape:cx="174.11642"
     inkscape:cy="71.831671"
     inkscape:document-units="px"
     inkscape:current-layer="layer1"
     showgrid="false"
     fit-margin-top="0"
     fit-margin-left="0"
     fit-margin-right="0"
     fit-margin-bottom="0"
     inkscape:window-width="1598"
     inkscape:window-height="849"
     inkscape:window-x="0"
     inkscape:window-y="0"
     inkscape:window-maximized="0" />
  <metadata
     id="metadata7">
    <rdf:RDF>
      <cc:Work
         rdf:about="">
        <dc:format>image/svg+xml</dc:format>
        <dc:type
           rdf:resource="http://purl.org/dc/dcmitype/StillImage" />
        <dc:title></dc:title>
      </cc:Work>
    </rdf:RDF>
  </metadata>
  <g
     inkscape:label="Layer 1"
     inkscape:groupmode="layer"
     id="layer1"
     transform="translate(-160.71428,-346.14791)">
    <path
       style="fill:#000000"
       d="m 178.70781,707.7189 c -7.08609,-2.17056 -12.86163,-6.93195 -16.09406,-13.26805 -1.84304,-3.61266 -1.89947,-8.58255 -1.89947,-167.30294 0,-158.72039 0.0564,-163.69028 1.89947,-167.30294 2.42936,-4.76194 6.50893,-8.82749 11.58742,-11.54759 l 4.01311,-2.14947 188,0 188,0 4.01311,2.14947 c 5.07849,2.7201 9.15806,6.78565 11.58742,11.54759 1.84304,3.61266 1.89947,8.58255 1.89947,167.30294 0,158.72039 -0.0564,163.69028 -1.89947,167.30294 -2.42936,4.76194 -6.50893,8.82749 -11.58742,11.54759 l -4.01311,2.14947 -186.5,0.16938 c -102.575,0.0932 -187.62791,-0.17612 -189.00647,-0.59839 z m 369.00647,-160.07099 0,-136 -181.5,0 -181.5,0 0,136 0,136 181.5,0 181.5,0 0,-136 z m -202.36306,57.49408 c -2.4555,-2.45549 -2.84391,-5.17338 -1.60784,-11.25077 3.54453,-17.42745 28.19174,-116.93141 29.4334,-118.82642 1.88076,-2.87041 6.56101,-3.89427 11.04171,-2.4155 3.76438,1.24236 5.49579,3.49377 5.49579,7.14636 0,2.44614 -27.55087,116.54076 -29.16972,120.79865 -1.77656,4.6727 -3.80991,6.0536 -8.91384,6.0536 -2.91819,0 -5.3589,-0.58532 -6.2795,-1.50592 z m -58.38694,-34.7479 -44.25,-19.19848 0.0137,-11.02385 0.0137,-11.02385 43.23633,-18.68702 c 23.77998,-10.27786 44.03767,-18.99381 45.01709,-19.36879 1.65933,-0.63528 1.76162,0.19581 1.5,12.18702 l -0.28082,12.86879 -28.53414,11 c -15.69378,6.05 -29.58518,11.46937 -30.86978,12.04305 -2.04067,0.91134 1.56274,2.56997 28.53415,13.13416 l 30.86977,12.0911 0.27988,12.61584 c 0.15393,6.93872 -0.0711,12.6034 -0.5,12.58818 -0.42894,-0.0152 -20.69238,-8.66698 -45.02988,-19.22615 z m 112.75,6.82789 0,-12.42594 10.25,-3.97811 c 31.16371,-12.09492 51.83979,-20.41356 51.52371,-20.72964 -0.19705,-0.19705 -13.83925,-5.57876 -30.31599,-11.95935 -16.47675,-6.3806 -30.30968,-11.94853 -30.73985,-12.37318 -0.43017,-0.42466 -0.65517,-6.21246 -0.5,-12.86178 l 0.28213,-12.08967 44.5,19.21681 44.5,19.21682 0.28052,10.96622 0.28052,10.96623 -44.28052,19.2511 c -24.35429,10.58811 -44.61802,19.24555 -45.03052,19.23876 -0.4125,-0.007 -0.75,-5.60401 -0.75,-12.43827 z m 44.54539,-182.68982 c 11.3282,-2.85247 16.12899,-17.17562 8.71151,-25.99079 -6.92903,-8.23469 -20.03964,-7.71219 -25.82441,1.02919 -3.41392,5.15878 -3.99855,9.30662 -2.03606,14.44534 2.00185,5.24177 5.13131,8.34517 10.25876,10.17336 4.74944,1.69341 3.68925,1.65252 8.8902,0.3429 z m 50.54832,-2.36225 c 6.86066,-4.47395 9.10902,-14.9576 4.63249,-21.60032 -7.17029,-10.63999 -20.28211,-10.63999 -27.4524,0 -4.24884,6.30485 -2.32829,16.76715 3.89085,21.19556 6.19707,4.4127 12.57391,4.54906 18.92906,0.40476 z m 43.90865,0.95994 c 3.4312,-1.75125 5.62793,-4.35284 7.54047,-8.93019 4.09754,-9.8068 -4.0639,-21.55175 -14.97608,-21.55175 -14.47664,0 -21.68213,16.22525 -11.9764,26.96833 5.1828,5.73673 12.47147,7.056 19.41201,3.51361 z"
       id="path2996"
       inkscape:connector-curvature="0" />
  </g>
</svg>
