<?xml version="1.0" encoding="UTF-8" standalone="no"?>
<svg
   xmlns:dc="http://purl.org/dc/elements/1.1/"
   xmlns:cc="http://creativecommons.org/ns#"
   xmlns:rdf="http://www.w3.org/1999/02/22-rdf-syntax-ns#"
   xmlns:svg="http://www.w3.org/2000/svg"
   xmlns="http://www.w3.org/2000/svg"
   xmlns:sodipodi="http://sodipodi.sourceforge.net/DTD/sodipodi-0.dtd"
   xmlns:inkscape="http://www.inkscape.org/namespaces/inkscape"
   height="1000"
   width="938"
   id="svg3125"
   version="1.1"
   inkscape:version="0.48.4 r9939"
   sodipodi:docname="github-circled.svg">
  <metadata
     id="metadata3133">
    <rdf:RDF>
      <cc:Work
         rdf:about="">
        <dc:format>image/svg+xml</dc:format>
        <dc:type
           rdf:resource="http://purl.org/dc/dcmitype/StillImage" />
      </cc:Work>
    </rdf:RDF>
  </metadata>
  <defs
     id="defs3131" />
  <sodipodi:namedview
     pagecolor="#ffffff"
     bordercolor="#666666"
     borderopacity="1"
     objecttolerance="10"
     gridtolerance="10"
     guidetolerance="10"
     inkscape:pageopacity="0"
     inkscape:pageshadow="2"
     inkscape:window-width="640"
     inkscape:window-height="480"
     id="namedview3129"
     showgrid="false"
     inkscape:zoom="0.236"
     inkscape:cx="469"
     inkscape:cy="500"
     inkscape:window-x="0"
     inkscape:window-y="0"
     inkscape:window-maximized="0"
     inkscape:current-layer="svg3125" />
  <path
     d="M468.75 968.5q-193.75 0 -331.25 -137.5t-137.5 -331.25 137.5 -331.25 331.25 -137.5 331.25 137.5 137.5 331.25 -137.5 331.25 -331.25 137.5zm0 -833.75q-151.25 0 -258.125 106.875t-106.875 258.125 106.875 258.125 258.125 106.875 258.125 -106.875 106.875 -258.125 -106.875 -258.125 -258.125 -106.875zm47.5 443.75q0 -17.5 9.375 -31.875t24.375 -14.375q13.75 0 23.125 14.375t9.375 31.875 -8.75 31.25 -23.75 13.75 -24.375 -13.75 -9.375 -31.25zm-91.25 118.75q-190 0 -190 -185 0 -57.5 37.5 -98.75 -5 -2.5 -1.25 -41.25 3.75 -37.5 17.5 -71.25 50 6.25 116.25 52.5 25 -6.25 63.75 -6.25 41.25 0 63.75 6.25 62.5 -43.75 103.75 -50l12.5 -2.5q13.75 33.75 17.5 71.25 3.75 38.75 -1.25 41.25 37.5 41.25 37.5 98.75 0 185 -190 185 -2.5 0 -21.25 .625t-22.5 .625 -21.875 -.625 -21.875 -.625zm45 -22.5q86.25 0 127.5 -20 43.75 -21.25 43.75 -83.75 0 -27.5 -17.5 -50t-43.75 -27.5q-11.25 -1.25 -59.375 1.25t-50.625 2.5q-13.75 0 -40 -1.875t-42.5 -2.5 -34.375 3.125 -29.375 13.75q-26.25 22.5 -26.25 61.25 0 63.75 42.5 83.75 41.25 20 127.5 20l2.5 0zm-81.25 -142.5q13.75 0 23.125 14.375t9.375 31.875 -9.375 31.25 -23.125 13.75q-15 0 -24.375 -13.75t-9.375 -31.25 9.375 -31.875 24.375 -14.375z"
     id="path3127"
     style="fill:#ffffff" />
</svg>
