<?xml version="1.0" encoding="UTF-8" standalone="no"?>
<!-- Created with Inkscape (http://www.inkscape.org/) -->

<svg
   xmlns:dc="http://purl.org/dc/elements/1.1/"
   xmlns:cc="http://creativecommons.org/ns#"
   xmlns:rdf="http://www.w3.org/1999/02/22-rdf-syntax-ns#"
   xmlns:svg="http://www.w3.org/2000/svg"
   xmlns="http://www.w3.org/2000/svg"
   xmlns:sodipodi="http://sodipodi.sourceforge.net/DTD/sodipodi-0.dtd"
   xmlns:inkscape="http://www.inkscape.org/namespaces/inkscape"
   inkscape:version="0.48.4 r9939"
   version="1.1"
   id="svg2"
   height="207.54243"
   width="150"
   sodipodi:docname="New document 1">
  <defs
     id="defs4" />
  <sodipodi:namedview
     id="base"
     pagecolor="#ffffff"
     bordercolor="#666666"
     borderopacity="1.0"
     inkscape:pageopacity="0.0"
     inkscape:pageshadow="2"
     inkscape:zoom="1"
     inkscape:cx="104.34626"
     inkscape:cy="78.900918"
     inkscape:document-units="px"
     inkscape:current-layer="layer1"
     showgrid="false"
     inkscape:window-width="1598"
     inkscape:window-height="849"
     inkscape:window-x="0"
     inkscape:window-y="0"
     inkscape:window-maximized="0"
     fit-margin-top="0"
     fit-margin-left="0"
     fit-margin-right="0"
     fit-margin-bottom="0" />
  <metadata
     id="metadata7">
    <rdf:RDF>
      <cc:Work
         rdf:about="">
        <dc:format>image/svg+xml</dc:format>
        <dc:type
           rdf:resource="http://purl.org/dc/dcmitype/StillImage" />
        <dc:title></dc:title>
      </cc:Work>
    </rdf:RDF>
  </metadata>
  <g
     inkscape:label="Layer 1"
     inkscape:groupmode="layer"
     id="layer1"
     transform="translate(-314.24982,-266.22157)">
    <path
       style="fill:#000000"
       d="m 320.51974,473.4293 c -1.22654,-0.24424 -3.13904,-1.59964 -4.25,-3.012 -1.99529,-2.53661 -2.01992,-3.7605 -2.01992,-100.37729 l 0,-97.80938 2.41277,-2.80577 2.41276,-2.80576 50.93382,-0.28453 c 47.6782,-0.26634 51.06674,-0.17046 53.0135,1.5 1.14383,0.98149 10.88787,11.89586 21.65342,24.25416 l 19.57373,22.46962 0,76.72461 0,76.72461 -2.41301,2.80577 -2.41301,2.80576 -68.33699,0.12714 c -37.58534,0.0699 -69.34052,-0.0727 -70.56707,-0.31694 z m 25.0745,-13.38885 c 2.11444,-0.58713 5.48944,-2.57504 7.5,-4.41759 3.274,-3.00039 3.65558,-3.87236 3.65558,-8.35359 0,-6.88707 -2.42486,-9.84309 -11.79598,-14.37988 -6.5381,-3.16525 -7.70402,-4.1058 -7.70402,-6.21481 0,-1.5194 0.83544,-2.93222 2.14986,-3.63568 2.04914,-1.09667 8.47395,-0.76886 12.08431,0.61656 1.27845,0.49059 1.89414,-0.29916 2.77051,-3.55374 0.61972,-2.30148 0.93359,-4.37768 0.69749,-4.61378 -0.2361,-0.2361 -3.01562,-0.85022 -6.17672,-1.3647 -7.80319,-1.27 -14.6393,0.26355 -18.53335,4.15761 -3.50229,3.50229 -4.45947,6.5334 -3.56642,11.29379 0.81329,4.33521 4.30844,7.60691 12.57432,11.77042 5.29809,2.66864 6.55731,3.7701 6.80993,5.95678 0.42954,3.71808 -2.68662,5.23052 -9.22397,4.47689 -2.79728,-0.32247 -6.03464,-0.8636 -7.19413,-1.20251 -1.80181,-0.52666 -2.25607,-0.0335 -3.12592,3.39341 -0.96756,3.81187 -0.88825,4.06009 1.60817,5.03304 5.47844,2.13515 12.10149,2.52857 17.47034,1.03778 z m 39.12606,-7.17135 c 0.8838,-3.9875 2.42672,-11.3 3.42871,-16.25 2.04428,-10.09908 1.8643,-10.38213 5.08685,8 2.9726,16.95641 2.21451,15.6455 8.84641,15.29744 l 5.66755,-0.29744 5.71646,-22 c 3.14406,-12.1 5.73156,-22.36102 5.75,-22.80226 0.0185,-0.44124 -2.32041,-0.66624 -5.19746,-0.5 l -5.23101,0.30226 -1.23307,5.5 c -0.67819,3.025 -2.00978,10.32696 -2.95909,16.22657 -0.94931,5.89962 -1.91335,10.53924 -2.14232,10.31028 -0.29856,-0.29857 -6.00681,-30.10494 -6.18329,-32.28685 -0.0111,-0.1375 -2.47788,-0.25 -5.48168,-0.25 l -5.46145,0 -0.98171,3.75 c -0.53994,2.0625 -1.99043,9.15 -3.2233,15.75 -1.23287,6.6 -2.50131,12.32036 -2.81874,12.7119 -0.31743,0.39155 -1.87199,-6.69595 -3.45457,-15.75 l -2.87742,-16.4619 -5.36068,0 c -3.79265,0 -5.36067,0.38886 -5.36067,1.32941 0,0.73118 2.24894,10.74368 4.99764,22.25 2.7487,11.50633 4.9987,21.25809 5,21.67059 0.001,0.4125 2.67167,0.75 5.93415,0.75 l 5.93179,0 1.6069,-7.25 z m 50.52952,-1.70956 0,-8.95956 8.25,-0.29044 8.25,-0.29044 0,-4 0,-4 -8.25,-0.29044 -8.25,-0.29044 0,-4.92063 0,-4.92062 8.75,-0.28894 8.75,-0.28893 0.3075,-4.25 0.3075,-4.25 -14.0575,0 -14.0575,0 0,23 0,23 5,0 5,0 0,-8.95956 z m 21,-89.04044 0,-42 -18.8,0 c -13.28889,0 -19.15177,-0.35177 -20,-1.2 -0.85994,-0.85994 -1.2,-7.37778 -1.2,-23 l 0,-21.8 -47,0 -47,0 0,65 0,65 67,0 67,0 0,-42 z m -97,18.61129 0,-6.38871 3.52138,-0.66061 c 5.8172,-1.09132 9.72273,-5.48979 14.45226,-16.27641 10.66839,-24.33136 15.98218,-31.62874 25.671,-35.25379 2.98671,-1.11748 6.5385,-2.03177 7.89287,-2.03177 2.35902,0 2.46249,0.26774 2.46249,6.37219 l 0,6.37219 -3.84959,0.61558 c -4.84516,0.77477 -8.64613,3.73124 -11.17831,8.69473 -1.08465,2.1261 -1.9721,4.10856 -1.9721,4.40547 0,0.29691 2.25,0.53984 5,0.53984 l 5,0 0,6.5 0,6.5 -7.96972,0 -7.96972,0 -3.37125,7.25 c -4.30063,9.24865 -11.19411,15.93152 -18.74736,18.1746 -8.79349,2.61138 -8.94195,2.53147 -8.94195,-4.81331 z"
       id="path3014"
       inkscape:connector-curvature="0" />
  </g>
</svg>
