<?xml version="1.0" encoding="UTF-8" standalone="no"?>
<!-- Created with Inkscape (http://www.inkscape.org/) -->

<svg
   xmlns:dc="http://purl.org/dc/elements/1.1/"
   xmlns:cc="http://creativecommons.org/ns#"
   xmlns:rdf="http://www.w3.org/1999/02/22-rdf-syntax-ns#"
   xmlns:svg="http://www.w3.org/2000/svg"
   xmlns="http://www.w3.org/2000/svg"
   xmlns:sodipodi="http://sodipodi.sourceforge.net/DTD/sodipodi-0.dtd"
   xmlns:inkscape="http://www.inkscape.org/namespaces/inkscape"
   width="448.5"
   height="391.8945"
   id="svg3017"
   version="1.1"
   inkscape:version="0.48.4 r9939"
   sodipodi:docname="New document 4">
  <defs
     id="defs3019" />
  <sodipodi:namedview
     id="base"
     pagecolor="#ffffff"
     bordercolor="#666666"
     borderopacity="1.0"
     inkscape:pageopacity="0.0"
     inkscape:pageshadow="2"
     inkscape:zoom="0.98994949"
     inkscape:cx="672.87407"
     inkscape:cy="202.58041"
     inkscape:document-units="px"
     inkscape:current-layer="layer1"
     showgrid="false"
     inkscape:window-width="1600"
     inkscape:window-height="853"
     inkscape:window-x="0"
     inkscape:window-y="0"
     inkscape:window-maximized="1"
     fit-margin-top="0"
     fit-margin-left="0"
     fit-margin-right="0"
     fit-margin-bottom="0" />
  <metadata
     id="metadata3022">
    <rdf:RDF>
      <cc:Work
         rdf:about="">
        <dc:format>image/svg+xml</dc:format>
        <dc:type
           rdf:resource="http://purl.org/dc/dcmitype/StillImage" />
        <dc:title></dc:title>
      </cc:Work>
    </rdf:RDF>
  </metadata>
  <g
     inkscape:label="Layer 1"
     inkscape:groupmode="layer"
     id="layer1"
     transform="translate(-142.57168,-345.61054)">
    <path
       style="fill:#000000"
       d="m 150.69164,735.62033 c -1.85889,-0.99049 -4.44408,-3.55913 -5.74488,-5.70809 l -2.36508,-3.9072 -0.005,-184.60212 -0.005,-184.60211 2.25,-3.30594 c 1.2375,-1.81826 3.52047,-4.24731 5.07327,-5.39788 l 2.82326,-2.09195 212.94242,-0.25687 c 235.3604,-0.2839 217.09407,-0.80292 222.52923,6.3229 l 2.88182,3.77823 0,185.75451 0,185.75451 -2.09195,2.82336 c -1.15057,1.55285 -3.57962,3.83586 -5.39788,5.07336 l -3.30594,2.25 -213.10211,-0.0419 c -203.28498,-0.04 -213.25782,-0.12489 -216.48191,-1.84281 z m 409.6334,-163.86529 -0.25361,-134.75 -193.25,-0.25254 -193.25,-0.25254 0,135.00254 0,135.00254 193.50361,0 193.50361,0 z m -319.72386,21.16653 c -4.59667,-1.99377 -6.80452,-4.09408 -9.37306,-8.91653 -1.93785,-3.63833 -2.16227,-5.88282 -2.48197,-24.8236 -0.40085,-23.74835 -0.14046,-24.6764 6.92356,-24.6764 6.44306,0 6.90172,1.53958 6.90172,23.16674 0,18.34903 0.048,18.77759 2.41342,21.5275 3.217,3.73998 10.32266,4.01288 13.8088,0.53033 2.19508,-2.19281 2.28795,-2.99161 2.55778,-22 0.26362,-18.57049 0.40175,-19.82696 2.36079,-21.47457 2.58691,-2.17567 8.19337,-2.27299 10.28778,-0.17857 1.31192,1.31191 1.57143,4.53755 1.57143,19.53212 0,21.30419 0.7302,24.13965 6.6725,25.91009 4.76462,1.41957 8.50156,0.17513 11.0252,-3.67151 1.54273,-2.3515 1.84999,-5.48971 2.13345,-21.78995 0.19511,-11.21979 0.75893,-19.55825 1.37244,-20.2975 1.47509,-1.77736 8.34364,-1.56459 10.22498,0.31675 1.31971,1.31971 1.57143,4.65449 1.57143,20.8185 0,22.08828 -1.0012,27.28943 -6.2226,32.32601 -4.31875,4.16588 -7.57222,5.28406 -15.37462,5.28406 -7.35107,0 -12.31801,-1.72647 -15.81143,-5.49593 l -2.40715,-2.59736 -2.60167,2.60167 c -1.43092,1.43092 -4.15791,3.25191 -6.05998,4.04665 -4.46426,1.86528 -15.04637,1.79009 -19.4928,-0.1385 z m 92.87753,-0.74352 c -3.36594,-1.77717 -5.0686,-3.61685 -7.20621,-7.78612 -2.78209,-5.42632 -2.79973,-5.58324 -2.93337,-26.0996 -0.15086,-23.15978 0.0149,-23.78729 6.28332,-23.78729 6.66213,0 6.94898,0.86365 6.94898,20.92221 0,10.43319 0.45798,19.09311 1.10842,20.95895 2.88884,8.28695 15.4864,7.84012 17.83944,-0.63276 0.57254,-2.06162 1.0435,-11.47876 1.04656,-20.92697 0.006,-19.43134 0.3138,-20.32143 7.0203,-20.32143 6.53885,0 6.98528,1.4806 6.98528,23.16674 0,18.3503 0.0479,18.7774 2.41394,21.5275 2.03532,2.3657 3.14416,2.79046 7.06976,2.70822 3.35893,-0.0704 5.26314,-0.7042 6.83606,-2.27543 2.06917,-2.06694 2.19612,-3.18225 2.49197,-21.89194 0.35261,-22.29873 0.64625,-23.23509 7.28655,-23.23509 6.29607,0 6.90268,1.80087 6.89593,20.47251 -0.003,8.81512 -0.4414,18.68755 -0.97382,21.93873 -1.95789,11.95584 -8.68134,17.52565 -21.20529,17.5668 -7.87247,0.0259 -10.39532,-0.79256 -15.05516,-4.88395 l -3.46223,-3.03989 -2.39886,2.60178 c -3.52898,3.82751 -7.98697,5.34402 -15.70945,5.34402 -5.26752,0 -7.90524,-0.54404 -11.28212,-2.32699 z m 96.12247,0.74352 c -4.60544,-1.99758 -6.81249,-4.10154 -9.35341,-8.91653 -1.90791,-3.61547 -2.14782,-6.0004 -2.49556,-24.80858 -0.43904,-23.74608 -0.17419,-24.69142 6.9175,-24.69142 6.44306,0 6.90172,1.53958 6.90172,23.16674 0,18.34903 0.048,18.77759 2.41342,21.5275 3.21683,3.73979 10.32252,4.01285 13.8088,0.53064 2.18112,-2.17856 2.299,-3.1263 2.77778,-22.33315 0.45812,-18.37806 0.66258,-20.17672 2.44113,-21.47489 2.5837,-1.88586 8.03131,-1.80154 9.98744,0.15459 1.31192,1.31191 1.57143,4.53755 1.57143,19.53212 0,21.00269 0.741,23.99581 6.40323,25.86451 2.636,0.86996 4.46705,0.89982 6.85478,0.1118 5.78656,-1.90973 6.20707,-3.51417 6.57152,-25.07322 0.19534,-11.55576 0.75419,-20.00506 1.37244,-20.75 1.4764,-1.77895 8.34427,-1.56755 10.2266,0.31479 1.31971,1.31971 1.57143,4.65449 1.57143,20.8185 0,22.08828 -1.0012,27.28943 -6.2226,32.32601 -4.31875,4.16588 -7.57222,5.28406 -15.37462,5.28406 -7.42561,0 -12.32025,-1.72889 -15.93404,-5.62823 l -2.52976,-2.72966 -1.53557,2.19233 c -0.84457,1.20579 -3.28791,3.08631 -5.42965,4.17895 -4.76996,2.43345 -15.77472,2.64527 -20.94401,0.40314 z m 82.67485,0.33347 c -0.92271,-0.6875 -1.959,-2.68267 -2.30287,-4.43371 -1.22869,-6.25675 6.81846,-10.65207 12.37576,-6.75959 2.85982,2.0031 3.09137,8.34702 0.39377,10.78831 -2.15738,1.9524 -8.08216,2.18165 -10.46666,0.40499 z m 24.15925,-186.81768 c 5.38235,-3.06065 7.48388,-6.49214 7.89228,-12.88688 0.27395,-4.28959 -0.1092,-6.28353 -1.69185,-8.80458 -6.35576,-10.12429 -21.94343,-9.68059 -27.36966,0.77907 -2.29571,4.42525 -1.85914,12.54204 0.8727,16.22518 4.77797,6.44179 13.62006,8.48375 20.29653,4.68721 z m -64.08636,-2.48902 c 2.06494,-1.44634 2.22251,-2.32751 2.22251,-12.42858 0,-8.55018 -0.33558,-11.20744 -1.57143,-12.44329 -1.41443,-1.41443 -16.22605,-1.5699 -148.25,-1.55612 -80.67321,0.008 -147.21292,0.35508 -147.86601,0.77035 -2.09122,1.32972 -3.30303,9.24194 -1.34519,18.08755 2.60278,11.75953 -3.03756,9.12679 148.92091,9.12679 130.22128,0 145.90237,-0.16506 147.88921,-1.5567 z"
       id="path3036"
       inkscape:connector-curvature="0"
       sodipodi:nodetypes="cscccsscsscccsscscccccccccccsssssssssssssscssssscsssssssssscssssssscssscssssssssssssssssssssssscssssssssssssssssssssss" />
  </g>
</svg>
